<svg version="1.1" id="Layer_1" xmlns="http://www.w3.org/2000/svg" xmlns:xlink="http://www.w3.org/1999/xlink" x="0px" y="0px"
	 width="100%" viewBox="0 0 1024 1024" enable-background="new 0 0 1024 1024" xml:space="preserve">
<g transform="translate(7, 0)">
<path fill="#000000" opacity="1.000000" stroke="none"
	d="
M388.000000,365.115906 
	C380.167603,365.168091 372.834381,365.170776 365.502960,365.286133 
	C360.216034,365.369324 358.696777,366.656677 359.284790,371.883209 
	C360.920319,386.421356 362.858307,400.926880 364.794434,415.429565 
	C368.271637,441.475311 371.766541,467.519012 375.381775,493.545868 
	C378.768555,517.928589 382.343201,542.285095 385.794189,566.658997 
	C389.664490,593.994507 393.409576,621.348022 397.359283,648.671936 
	C400.309814,669.083557 403.586395,689.447876 406.562439,709.855957 
	C412.131714,748.046753 418.098785,786.189941 422.902710,824.478088 
	C425.843231,847.914490 412.519867,867.029846 392.019562,871.691528 
	C389.049988,872.366821 386.066223,872.360107 383.073395,872.360413 
	C309.746796,872.368225 236.420212,872.389648 163.093658,872.342163 
	C136.128922,872.324707 117.919106,850.820068 121.308098,824.118347 
	C124.868088,796.069336 127.630882,767.919556 130.800629,739.820374 
	C133.280136,717.840210 135.922684,695.878113 138.356766,673.893005 
	C140.589783,653.723877 142.577011,633.527710 144.791245,613.356445 
	C146.769043,595.338928 148.915344,577.339905 150.975769,559.331421 
	C153.224380,539.678406 155.458771,520.023804 157.701218,500.370117 
	C160.246033,478.066467 162.837006,455.767975 165.325546,433.458069 
	C167.519058,413.793060 169.593613,394.114838 171.730881,374.443573 
	C173.850571,354.933960 175.979614,335.425385 178.119583,315.917999 
	C178.227097,314.938019 178.638550,313.966736 177.713013,312.647491 
	C170.039520,311.358215 161.870880,311.216125 153.942871,309.311249 
	C124.332108,302.196503 101.871613,285.970001 89.058479,257.886871 
	C83.617035,245.960587 80.582436,233.322769 82.672050,220.009552 
	C84.888985,205.885117 94.547592,197.692368 108.863670,197.686722 
	C136.527802,197.675812 164.192032,197.738068 191.855988,197.670151 
	C198.746384,197.653229 205.471893,198.368896 212.037170,200.525253 
	C213.054123,200.859253 214.180084,201.599731 215.370605,200.712616 
	C215.850677,198.550186 214.017059,197.893509 212.806702,196.897507 
	C199.962784,186.328369 195.173859,169.471527 200.670883,154.073868 
	C206.370178,138.109573 220.857361,127.880852 237.636337,127.624344 
	C248.145401,127.463684 257.392120,130.665894 265.082947,137.662491 
	C268.045532,140.357651 269.731812,139.966187 272.523590,137.648148 
	C286.074280,126.396950 300.997467,123.575500 317.083649,131.699188 
	C339.524567,143.032089 345.054871,172.466003 328.559265,191.770187 
	C327.586334,192.908798 326.420898,193.893585 325.525421,195.085480 
	C323.653412,197.577087 323.765472,200.556351 324.626526,203.202347 
	C325.415924,205.628189 328.066223,204.663544 329.932404,204.706207 
	C365.406982,205.517075 400.883728,206.232819 436.357758,207.064911 
	C444.008698,207.244385 451.781006,207.038177 459.273651,208.318848 
	C486.668243,213.001221 504.412415,233.173370 505.708923,262.165802 
	C506.526062,280.438141 506.856720,298.816864 505.337524,317.108978 
	C503.342896,341.125305 483.056946,361.767273 458.940430,364.229065 
	C441.167511,366.043274 423.310394,364.674408 405.495209,365.047577 
	C399.832153,365.166199 394.165192,365.097626 388.000000,365.115906 
M481.437927,256.336212 
	C477.037262,240.974243 466.331665,231.684280 452.153320,231.319748 
	C421.508514,230.531906 390.860352,229.870117 360.212616,229.202042 
	C342.888428,228.824402 325.561920,228.555786 308.237274,228.197800 
	C302.149048,228.072006 299.165680,225.541687 299.453979,220.456116 
	C300.057007,209.820480 301.034576,199.204147 301.514526,188.564392 
	C301.704010,184.364639 303.589203,182.000092 307.001801,179.854767 
	C315.314484,174.629105 317.196594,164.378403 311.579193,156.823334 
	C306.126099,149.489227 295.279785,148.456070 288.061340,154.583176 
	C280.651398,160.872818 280.138153,171.513382 287.198730,178.365067 
	C289.595001,180.690445 290.563141,183.093903 290.332703,186.316879 
	C289.489838,198.107437 288.751678,209.905457 287.963104,221.699921 
	C287.664825,226.161163 285.261871,228.261017 280.790833,228.172653 
	C275.625763,228.070557 270.458588,228.076202 265.292328,228.032669 
	C258.415466,227.974716 257.403229,227.170059 255.942795,220.338928 
	C253.715820,209.922363 251.776993,199.435898 249.219162,189.102051 
	C248.047974,184.370377 248.192413,180.802734 251.619705,176.817169 
	C256.526489,171.111160 256.078491,162.482071 251.624298,156.901886 
	C246.995316,151.102753 238.916687,149.132309 231.749725,152.054291 
	C225.214966,154.718521 221.584625,161.024139 222.314255,168.596481 
	C222.915375,174.834946 226.453552,179.031754 231.941315,181.605637 
	C235.270798,183.167236 236.877106,185.512192 237.576492,189.167419 
	C239.828049,200.934967 242.472092,212.626892 244.890442,224.363297 
	C246.152496,230.488052 243.454544,235.831696 238.125870,237.825623 
	C233.035446,239.730408 228.734116,238.167923 224.778610,234.733841 
	C214.958176,226.208008 203.570358,222.149109 190.486557,221.784744 
	C165.157349,221.079361 139.829254,221.527725 114.502472,221.266479 
	C106.452293,221.183426 105.236954,222.691742 106.626053,230.753311 
	C109.365120,246.649277 116.810509,259.936432 129.274658,270.179565 
	C148.734116,286.171448 171.049911,291.447357 195.752838,287.260315 
	C201.711746,286.250305 206.804657,288.520416 208.877792,293.019775 
	C211.140732,297.931061 209.845932,302.610992 204.960205,306.691254 
	C203.790909,307.667786 202.559067,308.447693 202.415176,310.164276 
	C202.039749,314.643188 201.628174,319.119263 201.200073,323.593536 
	C200.872833,327.013672 202.202408,328.163208 205.606552,327.226410 
	C210.950317,325.755890 216.436462,325.492249 221.962646,325.691223 
	C245.629410,326.543274 265.195740,345.301483 266.337708,368.922577 
	C267.522125,393.421783 255.400803,410.852142 235.455688,423.394989 
	C223.049271,431.196930 209.345810,434.156860 194.753372,431.420776 
	C190.540192,430.630859 188.938965,432.394684 188.581726,436.195679 
	C188.129990,441.002197 187.529144,445.799500 187.251495,450.615662 
	C187.106262,453.134491 185.494583,455.720886 187.143463,458.265900 
	C225.581345,450.471161 258.243225,479.313904 257.668213,513.381653 
	C257.406891,528.866394 251.240768,542.055481 240.072311,552.422119 
	C221.100800,570.031372 198.960114,573.556458 174.884262,564.670776 
	C172.702698,571.845337 171.079117,590.657471 172.278061,594.263245 
	C174.030991,594.049316 175.848785,593.916931 177.632477,593.595337 
	C190.208435,591.328125 202.169006,593.338989 213.607986,598.797791 
	C242.582855,612.624939 254.281693,646.240112 239.755676,673.828308 
	C227.627640,696.862183 200.142975,710.138855 174.441101,705.678650 
	C169.246353,704.777283 164.266129,702.954834 158.764221,702.098755 
	C156.926544,718.131958 155.077499,733.799622 153.345596,749.480225 
	C150.533020,774.945068 147.892654,800.429382 144.989868,825.883850 
	C143.471527,839.197937 150.592270,848.328796 163.793091,848.556580 
	C181.120895,848.855530 198.457657,848.638977 215.790573,848.627441 
	C217.269318,848.626465 218.814972,848.787720 219.954224,847.460388 
	C223.126175,843.764404 222.116547,835.673706 218.228210,832.665161 
	C196.850296,816.124329 182.604630,795.134521 178.083939,768.098999 
	C174.548477,746.955444 189.678711,730.825806 210.168564,733.996399 
	C218.142944,735.230286 225.668030,737.857422 232.671814,741.901855 
	C250.862839,752.406433 264.265442,767.295288 272.858490,786.410706 
	C274.660370,790.419189 276.781616,792.475281 281.433105,793.265381 
	C292.664368,795.173035 301.827606,801.185852 309.091766,809.949036 
	C317.190765,819.719482 321.401978,831.203491 323.271942,843.588928 
	C323.811981,847.165710 325.117920,848.800171 328.991333,848.766907 
	C346.822998,848.613525 364.657104,848.759460 382.489532,848.658936 
	C390.349762,848.614624 395.622406,844.459229 397.915741,836.875244 
	C399.449524,831.803162 398.977173,826.646301 398.298889,821.514771 
	C396.772491,809.966675 395.359314,798.398865 393.527008,786.898560 
	C392.923370,783.109741 393.393463,778.904480 390.618561,775.203857 
	C388.307617,776.100403 386.172729,776.955383 384.019073,777.760010 
	C359.797760,786.808472 336.606201,784.807068 314.623962,771.050598 
	C286.164276,753.240479 278.279022,716.188782 296.928162,688.384521 
	C311.451447,666.731567 342.240601,654.957275 368.902802,660.821472 
	C370.765961,661.231323 372.641113,662.369507 375.111816,660.936890 
	C373.549835,649.941589 371.970490,638.823975 370.419647,627.906799 
	C367.411224,626.864807 365.326965,628.281921 363.144379,628.868286 
	C339.614716,635.189575 318.272552,630.631165 300.244781,614.444641 
	C268.191559,585.665039 279.416107,533.406677 320.501709,517.852356 
	C329.896362,514.295654 339.502319,513.041687 349.429596,513.635559 
	C352.111725,513.796082 354.196960,513.476501 353.721497,510.005310 
	C352.670715,502.334534 351.622650,494.663361 350.513306,486.552399 
	C323.876678,497.268768 300.153839,494.574280 281.177795,472.914062 
	C267.342682,457.121979 264.503876,438.327179 273.600250,419.258057 
	C286.048187,393.162903 308.007324,383.734894 336.495605,386.891632 
	C335.989746,382.305084 335.634949,377.874634 334.992767,373.486298 
	C332.813080,358.590759 340.803741,346.369080 355.379730,342.499878 
	C360.092224,341.248962 364.934235,341.135437 369.756378,341.118591 
	C397.255646,341.022369 424.755707,341.075745 452.254425,340.908020 
	C467.843903,340.812927 481.370941,329.190369 481.789276,314.669006 
	C482.340790,295.525177 482.453217,276.350433 481.437927,256.336212 
M297.988190,734.429321 
	C299.898071,740.340271 302.628296,745.822571 306.407166,750.777222 
	C323.300140,772.926147 357.137695,780.173035 384.453094,767.797424 
	C389.193115,765.649841 390.285248,762.840454 389.562958,758.075073 
	C385.476166,731.112244 381.544708,704.125610 377.636261,677.136169 
	C377.176636,673.962097 375.817322,672.126038 372.583191,671.259277 
	C363.316620,668.776123 354.072876,667.639221 344.466125,669.267883 
	C311.184204,674.910278 290.057037,702.923584 297.988190,734.429321 
M352.190735,523.213318 
	C343.617859,521.208130 335.312103,522.792603 327.144897,525.300598 
	C300.983856,533.334351 285.173279,560.830322 292.673645,585.594666 
	C301.722168,615.470581 335.609070,629.563843 365.878082,618.306274 
	C368.441620,617.352905 368.656219,615.607056 368.275970,613.121887 
	C366.643219,602.450439 365.228943,591.745667 363.722748,581.054688 
	C361.267029,563.624146 358.851013,546.187561 356.275543,528.774597 
	C355.967560,526.692383 356.292175,523.806824 352.190735,523.213318 
M236.281326,654.702942 
	C240.375107,620.545898 207.319809,594.834167 173.445816,603.818054 
	C170.360413,604.636353 169.491318,606.612854 169.172333,609.655212 
	C167.802567,622.718933 166.126373,635.750183 164.606689,648.798584 
	C163.125336,661.517395 161.755981,674.249573 160.211197,686.960571 
	C159.773788,690.559814 161.179657,692.371948 164.494156,693.702515 
	C171.956863,696.698425 179.679703,697.205750 187.556808,697.015381 
	C210.937820,696.450378 231.845306,678.589661 236.281326,654.702942 
M227.408737,550.915222 
	C244.171387,538.864807 251.786392,519.187988 246.703125,501.059296 
	C240.317688,478.286682 217.553177,463.519012 194.103409,466.937103 
	C184.989914,468.265503 185.220352,468.290924 184.240814,477.168335 
	C181.577637,501.304108 178.829453,525.432678 175.776138,549.521118 
	C175.291229,553.346741 176.304123,555.024658 179.605087,556.254700 
	C196.178986,562.430481 211.930191,561.092773 227.408737,550.915222 
M294.102997,406.587036 
	C281.835297,417.409729 275.905029,430.943787 278.882263,447.146271 
	C284.397491,477.160950 317.454956,491.863434 345.631317,478.433014 
	C348.475861,477.077148 348.952484,475.065033 348.580231,472.358185 
	C345.298798,448.498810 341.973328,424.645142 338.836121,400.766785 
	C338.443298,397.776947 336.892822,396.886932 334.401215,396.384674 
	C319.614105,393.403931 306.374573,396.678711 294.102997,406.587036 
M198.158264,352.432159 
	C195.847214,373.267090 193.474457,394.095459 191.260040,414.940674 
	C190.527847,421.832947 191.016495,422.115265 198.248001,422.809143 
	C214.452148,424.364044 228.651627,419.713196 240.455948,408.594086 
	C253.423965,396.378906 259.978302,381.357788 256.091919,363.533813 
	C250.990005,340.134979 225.952957,328.834595 202.229065,337.439789 
	C200.495834,338.068481 199.518402,339.222656 199.340866,341.111450 
	C199.014069,344.588074 198.603958,348.056854 198.158264,352.432159 
M187.070709,759.781311 
	C187.094681,763.934265 186.972504,768.080383 188.024948,772.174072 
	C193.118774,791.987732 203.731735,808.339050 219.085434,821.687134 
	C225.290466,827.081604 225.530594,826.971680 229.312698,819.811951 
	C236.004333,807.144104 246.065628,798.499084 259.764160,794.130493 
	C261.434845,793.597595 263.456207,793.580811 264.621948,791.265442 
	C262.428802,785.023987 258.990692,779.158325 254.926682,773.703003 
	C243.849426,758.833801 229.870499,748.015259 211.462494,743.830627 
	C197.288498,740.608459 188.615631,746.085144 187.070709,759.781311 
M246.197449,842.602783 
	C244.890579,848.588074 244.934708,848.713135 250.717499,848.726868 
	C265.212891,848.761353 279.708466,848.746826 294.203857,848.705017 
	C295.820679,848.700317 297.552704,849.098267 299.591003,847.511230 
	C298.033020,838.503235 295.350220,829.788940 288.255676,823.015991 
	C278.687744,813.881592 265.431488,814.110535 256.050262,823.485229 
	C250.925659,828.606262 248.360123,835.067871 246.197449,842.602783 
z"/>
</g>
<g transform="translate(-7, 0)">
<path fill="#000000" opacity="1.000000" stroke="none"
	d="
M902.438599,785.641846 
	C904.348511,800.765991 907.241699,815.354736 907.283875,830.208618 
	C907.351501,854.064514 888.996765,872.225769 865.081848,872.227966 
	C790.248596,872.234802 715.415405,872.226929 640.582153,872.206360 
	C612.930115,872.198730 593.405334,849.343628 597.027222,821.798950 
	C601.450928,788.155457 605.440674,754.455078 609.708069,720.790710 
	C613.912537,687.622437 618.213928,654.466309 622.502014,621.308716 
	C626.554871,589.969971 630.581665,558.627625 634.738037,527.302490 
	C638.893433,495.984833 643.277771,464.697510 647.402161,433.375854 
	C649.963745,413.922302 652.304688,394.438568 654.590881,374.950378 
	C655.581787,366.503448 654.064819,365.097656 645.489563,365.030853 
	C619.828552,364.830933 594.168396,365.067688 568.504944,364.486267 
	C538.314209,363.802307 516.498596,342.515717 516.150574,312.324829 
	C515.943176,294.333740 515.823425,276.337494 516.668152,258.346436 
	C517.916504,231.758331 542.159546,208.189240 568.782959,207.670898 
	C598.097900,207.100174 627.416992,206.560013 656.717773,205.534943 
	C667.373901,205.162125 678.027100,204.908936 688.683044,204.625351 
	C690.999023,204.563721 694.380432,206.021118 695.397339,203.065140 
	C696.506042,199.842438 696.559326,196.128693 693.900330,193.163925 
	C690.879883,189.796173 688.295349,186.179031 686.537842,181.947220 
	C679.627686,165.308762 684.607971,145.748611 698.547546,135.166779 
	C712.940430,124.240891 733.540771,124.622734 747.716187,136.086227 
	C748.999756,137.124207 750.246216,138.208099 751.663452,139.399750 
	C768.878906,124.445175 787.253967,121.582527 806.433960,134.855881 
	C817.672607,142.633514 822.380981,154.285828 822.104126,167.749573 
	C821.828674,181.147308 814.176147,191.077988 804.201660,200.259232 
	C842.926575,193.301514 880.584045,197.934402 918.044006,196.762985 
	C931.391174,196.345596 941.265991,207.420425 941.150146,222.262512 
	C940.996033,241.988785 933.987671,259.518372 921.766907,274.718750 
	C902.714050,298.417084 877.760010,310.778015 847.229980,311.251740 
	C843.117737,311.315552 841.907349,312.657379 842.435547,316.519745 
	C846.310181,344.852509 850.243713,373.178131 853.917236,401.537262 
	C857.869934,432.051880 861.495361,462.608704 865.382446,493.132019 
	C869.121338,522.491638 873.062866,551.825562 876.821411,581.182739 
	C880.391907,609.071655 883.830261,636.977478 887.346375,664.873413 
	C890.861572,692.761780 894.417664,720.644958 897.922241,748.534668 
	C899.457214,760.750122 900.908752,772.976013 902.438599,785.641846 
M876.015747,280.544678 
	C896.983521,269.007507 909.500854,251.089554 915.314331,228.207550 
	C917.073975,221.281555 916.162720,220.315842 909.138916,220.318420 
	C883.639465,220.327789 858.139954,220.332581 832.640503,220.350754 
	C819.104980,220.360413 807.198792,224.764359 796.891418,233.560394 
	C795.129578,235.063858 793.243958,236.505493 791.209473,237.588608 
	C787.132202,239.759277 783.040100,239.150604 779.429810,236.516418 
	C775.920593,233.955994 774.584595,230.300705 775.316711,225.954483 
	C777.306702,214.140869 779.465088,202.351501 781.186218,190.498734 
	C781.889221,185.657303 784.036499,182.903473 788.592529,180.987320 
	C796.183594,177.794708 800.001343,169.908173 798.236572,162.693161 
	C796.550476,155.799850 791.599182,151.162186 784.885132,150.183380 
	C777.179688,149.060013 771.098083,151.695114 766.858215,158.221741 
	C763.135742,163.951874 763.617554,171.024033 767.955750,176.955078 
	C769.402527,178.933197 771.544556,180.536514 770.964722,183.477310 
	C768.388489,196.543655 765.860413,209.619507 763.274414,222.683914 
	C762.673523,225.719681 760.704163,227.252319 757.613892,227.271439 
	C750.781006,227.313736 743.947937,227.317734 737.115112,227.361130 
	C733.611267,227.383377 731.930481,225.564850 731.740295,222.177002 
	C731.087219,210.544556 730.497498,198.908005 729.743103,187.282150 
	C729.516785,183.793671 730.665710,181.236755 733.353333,179.030563 
	C737.472961,175.648880 739.407410,171.080750 739.163147,165.796173 
	C738.809387,158.141327 733.273499,152.051590 725.621704,150.536163 
	C718.690552,149.163467 711.188110,152.772842 708.434998,158.804611 
	C704.995850,166.339371 706.609436,174.008957 712.899536,179.032852 
	C715.410828,181.038559 718.085510,182.819489 718.302490,186.396576 
	C718.957764,197.198746 719.727905,207.998123 720.116699,218.810699 
	C720.341187,225.055862 717.308777,227.939407 710.966187,228.090973 
	C665.162048,229.185532 619.358398,230.317719 573.550964,231.259430 
	C552.926025,231.683426 540.183716,244.134979 540.066956,264.685150 
	C539.976990,280.517639 540.040955,296.351135 540.069641,312.184082 
	C540.074463,314.843475 540.167847,317.488647 540.913818,320.102295 
	C544.565979,332.897705 555.212463,340.793823 569.359009,340.829163 
	C596.524963,340.897064 623.691345,340.798431 650.857300,340.865845 
	C662.500916,340.894714 671.153381,346.292603 675.757751,356.882568 
	C677.613037,361.149506 679.964172,363.261078 684.184021,364.811920 
	C698.440369,370.051056 706.688660,384.454620 704.516052,399.399200 
	C702.298279,414.654205 692.625793,424.650665 676.520264,427.837128 
	C673.197510,428.494568 671.736938,429.712555 671.292114,433.133759 
	C667.817932,459.852783 664.223267,486.556549 660.528198,513.245972 
	C659.997131,517.082153 660.883972,518.508606 665.021973,518.801575 
	C686.731201,520.338745 703.006836,530.680603 712.395630,550.406372 
	C722.055298,570.701111 719.164978,590.274658 705.445801,607.618347 
	C691.438354,625.326416 672.823364,632.776306 650.153198,628.682068 
	C648.419739,628.369080 646.008240,627.429688 645.538696,629.969910 
	C644.290771,636.720276 643.255188,643.533203 643.022705,650.886719 
	C645.272339,650.385803 646.729553,650.132385 648.146179,649.734619 
	C659.012268,646.684021 669.853455,646.997253 680.725159,649.764954 
	C719.895874,659.737061 736.361389,703.996521 713.155701,737.005554 
	C695.621277,761.947388 664.018921,771.561584 634.570251,760.912964 
	C628.973267,758.889099 628.882141,758.877686 628.155518,764.666870 
	C625.669312,784.475220 623.419189,804.314819 620.753052,824.098511 
	C618.890686,837.917725 626.835571,847.835632 640.703125,848.016235 
	C652.534241,848.170410 664.368958,848.088989 676.201660,848.028320 
	C677.755371,848.020386 679.555725,848.542603 681.014832,846.797791 
	C680.477966,845.666077 680.044067,844.413513 679.344604,843.332703 
	C675.375244,837.198730 673.348572,830.396301 672.115051,823.270081 
	C669.630981,808.919617 677.163879,795.687256 690.791626,790.531250 
	C701.767212,786.378784 712.649963,787.740295 722.875610,792.359497 
	C730.060974,795.605225 736.699341,798.057983 744.504578,794.951904 
	C746.543396,794.140564 749.137268,794.486633 751.450500,794.654724 
	C755.537231,794.951782 757.016724,794.008057 756.105652,789.325012 
	C751.755798,766.965332 757.795776,747.303223 774.524536,732.099365 
	C800.516174,708.477112 830.527588,703.866699 863.283691,716.248718 
	C865.201599,716.973694 866.941101,718.668701 870.229675,717.552612 
	C868.322021,702.477417 866.401428,687.300293 864.401184,671.493530 
	C860.885437,673.249512 858.248962,674.633240 855.557556,675.900146 
	C832.345154,686.826965 809.005554,687.549255 785.666321,676.424011 
	C760.933411,664.634460 745.226562,636.165649 748.940247,610.966492 
	C755.273926,567.988525 796.700684,545.444275 831.489868,550.423279 
	C837.374329,551.265503 842.949158,553.456116 849.485229,554.282532 
	C843.746460,509.696503 838.072571,465.614380 832.450562,421.935577 
	C830.293945,421.227448 829.295044,421.990997 828.240479,422.406830 
	C804.333435,431.834015 781.920410,427.187378 764.024292,409.077332 
	C748.226501,393.090668 743.812988,368.237000 753.366577,349.061035 
	C763.545776,328.629486 786.314270,316.479858 808.759827,319.539978 
	C811.956848,319.975830 815.130188,320.584534 818.964478,321.221130 
	C817.718079,314.098175 818.742859,307.543152 813.424744,301.974854 
	C808.394409,296.708038 811.417908,288.290405 818.336304,285.783478 
	C821.674988,284.573669 824.856567,285.236328 828.150879,285.919617 
	C844.412292,289.292603 860.270569,288.614960 876.015747,280.544678 
M772.338806,748.860352 
	C763.425232,763.237305 762.022034,778.448059 767.200989,794.426514 
	C767.841064,796.401245 768.605774,798.093628 770.559082,799.124939 
	C788.387939,808.538330 797.835083,823.970459 801.743591,843.184021 
	C802.468201,846.745850 803.849670,848.442078 807.523071,848.409973 
	C827.498901,848.235596 847.476257,848.206909 867.451233,847.973938 
	C875.051208,847.885376 879.676514,843.369202 882.471436,836.725769 
	C884.067566,832.931946 883.992065,828.885071 883.512085,824.899475 
	C879.913513,795.015320 876.252625,765.138672 872.623718,735.258118 
	C872.301147,732.602295 871.094360,730.688110 868.728088,729.262207 
	C838.141785,710.830811 793.632568,717.478027 772.338806,748.860352 
M758.256775,613.834900 
	C757.034180,629.660706 761.874939,643.454041 772.601135,655.042236 
	C794.144043,678.316589 833.712158,681.728638 860.008179,662.831421 
	C862.221436,661.240967 862.926086,659.433777 862.567200,656.879089 
	C861.733765,650.947205 860.950439,645.007751 860.209106,639.063538 
	C857.348572,616.127258 854.431274,593.197266 851.756775,570.239136 
	C851.366089,566.885620 849.935486,565.249634 847.002136,564.080139 
	C833.255066,558.599670 819.283752,557.656860 804.908875,561.273804 
	C780.089600,567.518799 761.459473,588.059021 758.256775,613.834900 
M662.279724,755.858948 
	C669.895203,755.625732 677.006287,753.453003 683.871216,750.292542 
	C706.434570,739.904846 719.183655,714.674255 713.135925,692.344055 
	C705.914612,665.680847 675.768494,650.623474 647.502441,659.336670 
	C642.859924,660.767761 640.833191,663.210815 640.259399,668.012573 
	C637.204590,693.577148 633.945435,719.118164 630.574402,744.643127 
	C630.133423,747.982117 631.289124,749.485718 634.125122,750.716492 
	C642.827026,754.492859 651.861023,756.306335 662.279724,755.858948 
M805.195618,328.330902 
	C779.758972,326.800201 755.444336,347.003174 758.119629,375.562561 
	C761.017944,406.503113 796.481140,428.771820 827.937805,412.306488 
	C829.948792,411.253906 830.870178,409.858002 830.561218,407.507263 
	C827.789551,386.414642 825.288513,365.283752 822.263306,344.228058 
	C820.303345,330.587097 819.970764,330.634888 805.195618,328.330902 
M655.332581,553.685730 
	C652.755249,573.108765 650.224365,592.538208 647.574097,611.951233 
	C646.716431,618.233521 647.190430,618.739075 653.690613,619.928589 
	C684.195068,625.510620 713.531250,595.833496 707.819275,565.539062 
	C703.999573,545.280823 684.065308,527.642700 663.456360,527.721619 
	C660.143066,527.734314 658.392090,528.778687 658.078491,532.554565 
	C657.515991,539.327576 656.314453,546.047607 655.332581,553.685730 
M733.721680,825.221375 
	C727.804077,831.616394 724.578369,839.192139 723.213013,847.700623 
	C726.542725,848.498901 771.889893,849.022766 775.037537,848.644653 
	C778.104553,848.276184 777.889038,846.337402 777.382935,844.294739 
	C776.338440,840.079529 774.738708,836.070007 772.584778,832.285217 
	C763.895386,817.016663 748.162537,813.910400 733.721680,825.221375 
M691.809509,800.196533 
	C684.379761,803.461792 681.424316,809.483032 681.097168,817.258545 
	C680.659851,827.653259 685.007874,836.246338 690.935974,844.302124 
	C692.436890,846.341797 693.836121,848.636597 696.879761,847.776367 
	C699.498779,847.036194 699.296753,844.535645 699.714417,842.471558 
	C702.735962,827.539490 709.151367,814.551147 721.266846,804.818237 
	C721.992371,804.235413 723.006165,803.724365 722.445557,801.911987 
	C712.864258,798.159058 703.009949,795.222839 691.809509,800.196533 
M677.988586,377.539429 
	C676.457153,389.887451 674.921143,402.234924 673.397217,414.583862 
	C672.979431,417.969482 674.196655,419.170013 677.687622,418.163727 
	C686.766846,415.546570 692.732056,409.691498 695.271912,400.747772 
	C698.192688,390.462646 692.302795,378.101898 683.212097,374.295776 
	C680.525818,373.171112 678.273865,372.696930 677.988586,377.539429 
z"/>
<path fill="#000000" opacity="1.000000" stroke="none" 
	d="
M285.723938,277.926880 
	C288.329193,260.132812 311.240845,247.910889 328.010803,262.175110 
	C337.876892,270.567017 340.083557,283.987640 333.707733,295.171204 
	C327.702911,305.704010 314.708923,310.725006 303.145233,306.980774 
	C291.330231,303.155182 284.110992,291.314697 285.723938,277.926880 
z"/>
<path fill="#000000" opacity="1.000000" stroke="none" 
	d="
M448.236786,288.463135 
	C441.839142,292.026764 435.384033,291.511383 429.044373,290.006348 
	C424.477112,288.922058 421.346100,283.481323 421.843475,278.750885 
	C422.352539,273.909119 426.423065,269.604065 431.730621,269.020660 
	C435.494537,268.606964 439.376526,268.613220 443.140747,269.025757 
	C447.644836,269.519348 450.634583,272.396912 452.123260,276.646027 
	C453.764648,281.331055 451.926880,285.040802 448.236786,288.463135 
z"/>
<path fill="#000000" opacity="1.000000" stroke="none" 
	d="
M795.723389,518.593384 
	C784.641296,535.615112 765.068481,545.092773 747.844910,541.909668 
	C726.330994,537.933777 712.366943,525.404785 707.467896,504.106842 
	C703.118652,485.199127 709.357910,468.962280 724.100708,456.782715 
	C739.446167,444.105225 757.084595,441.765717 775.110535,450.451324 
	C792.191956,458.681824 801.526245,472.695007 802.396912,492.009430 
	C802.822998,501.460327 800.702026,510.171875 795.723389,518.593384 
M724.113464,518.368286 
	C736.316650,533.517578 756.060730,537.234009 773.573486,527.678223 
	C790.117432,518.651001 797.793152,496.607513 790.444336,479.227631 
	C782.580872,460.630585 762.304016,450.930206 743.666626,456.477661 
	C719.000610,463.819519 705.848938,494.381714 724.113464,518.368286 
z"/>
<path fill="#000000" opacity="1.000000" stroke="none" 
	d="
M736.818481,275.781128 
	C740.594910,297.640350 724.108398,308.723328 711.186829,308.375854 
	C698.248596,308.027954 687.871460,298.760925 685.872375,285.211670 
	C684.093384,273.153381 692.704346,260.251587 704.766113,256.903107 
	C716.683289,253.594772 729.986450,259.819916 735.143555,271.154877 
	C735.761414,272.512817 736.179443,273.961609 736.818481,275.781128 
z"/>
<path fill="#000000" opacity="1.000000" stroke="none" 
	d="
M597.923828,286.776489 
	C592.463379,291.326019 579.574524,292.500610 574.017090,289.164307 
	C570.269836,286.914673 568.342896,283.555725 568.731323,279.149445 
	C569.131592,274.608246 571.444458,271.188904 575.821289,269.774841 
	C581.316101,267.999603 587.094604,268.042114 592.570679,269.508545 
	C599.903442,271.472198 602.173523,279.007172 597.923828,286.776489 
z"/>
</g>
</svg>